<?xml version="1.0" standalone="no"?>
<!DOCTYPE svg PUBLIC "-//W3C//DTD SVG 20010904//EN"
 "http://www.w3.org/TR/2001/REC-SVG-20010904/DTD/svg10.dtd">
<svg version="1.0" xmlns="http://www.w3.org/2000/svg"
 width="500.000000pt" height="500.000000pt" viewBox="0 0 500.000000 500.000000"
 preserveAspectRatio="xMidYMid meet">

<g transform="translate(0.000000,500.000000) scale(0.100000,-0.100000)"
fill="#000000" stroke="none">
<path d="M2870 4274 c-264 -57 -474 -251 -534 -495 -19 -76 -21 -243 -5 -321
6 -29 26 -86 44 -125 19 -40 31 -73 27 -73 -4 0 -44 20 -90 45 -159 85 -321
225 -467 403 -64 78 -70 83 -99 78 -76 -15 -87 -77 -31 -170 19 -32 35 -62 35
-66 0 -5 -15 -18 -34 -29 -19 -12 -50 -39 -70 -61 -59 -65 -48 -128 30 -168
14 -7 24 -25 29 -48 17 -93 220 -213 462 -274 l42 -11 -18 -32 c-10 -17 -41
-97 -70 -177 -46 -129 -56 -147 -86 -168 -38 -24 -95 -96 -95 -119 0 -11 -20
-13 -112 -7 -354 20 -763 -82 -1018 -256 -103 -70 -118 -108 -78 -206 81 -199
287 -453 496 -612 448 -341 1105 -526 1636 -461 l92 12 74 -41 c82 -45 228
-97 302 -107 33 -5 56 -3 78 8 26 14 34 14 58 1 15 -7 33 -14 40 -14 7 0 30
-13 52 -29 53 -38 115 -46 207 -27 85 17 171 53 182 75 14 26 -4 57 -76 129
-85 85 -145 115 -224 115 -44 -1 -59 3 -59 13 0 8 -16 16 -40 20 -46 7 -84 49
-55 60 9 4 29 4 46 0 16 -3 48 1 71 9 36 12 45 12 69 -1 15 -7 34 -11 42 -8 8
3 17 -2 20 -10 3 -8 25 -25 48 -37 61 -31 185 -24 289 17 69 27 75 32 78 61 3
28 -7 41 -75 111 -91 92 -165 128 -240 118 -33 -4 -43 -2 -43 8 0 15 -21 26
-51 26 -11 0 -37 18 -58 40 -22 23 -51 43 -70 46 -31 6 -31 7 -11 21 15 11 24
12 34 4 7 -6 26 -12 42 -13 16 -1 40 -12 54 -24 35 -32 73 -44 134 -44 89 0
258 54 270 87 9 23 -27 74 -103 146 -76 71 -141 101 -212 96 -30 -3 -43 1 -50
14 -6 10 -22 17 -42 17 -24 0 -38 8 -59 34 -20 25 -45 40 -90 55 -77 26 -240
51 -329 51 -62 0 -69 2 -120 43 -30 23 -85 62 -122 86 l-67 43 72 37 73 37 46
-28 c140 -85 244 -105 294 -58 23 22 34 25 83 22 47 -3 63 1 91 20 73 49 96
152 66 296 -16 81 -16 81 11 189 54 216 7 343 -152 408 -56 23 -57 24 -29 30
107 22 140 42 181 106 39 62 55 138 43 210 -5 34 -17 76 -26 93 -11 20 -18 61
-19 116 -4 125 -19 183 -75 299 -42 87 -64 117 -132 186 -66 66 -99 90 -167
123 -140 68 -295 88 -440 56z m275 -39 c116 -24 208 -76 301 -169 123 -124
185 -257 200 -425 l7 -84 -24 6 c-13 4 -39 7 -56 7 -33 0 -33 1 -33 48 0 178
-141 404 -323 516 -73 45 -200 96 -240 96 -12 0 -29 5 -37 10 -24 15 125 12
205 -5z m-141 -45 c273 -70 495 -318 500 -559 1 -88 -19 -111 -29 -34 -23 175
-72 280 -179 386 -137 137 -244 182 -431 182 -109 0 -126 -3 -185 -28 -97 -42
-97 -42 -67 -17 16 12 59 38 95 56 58 30 77 34 143 34 43 0 109 -9 153 -20z
m-41 -140 c36 -11 75 -28 87 -38 22 -18 20 -18 -76 -19 -55 0 -119 -6 -144
-12 -106 -29 -245 -121 -331 -219 l-41 -47 6 42 c15 101 72 200 147 253 84 61
231 77 352 40z m-1153 -357 c105 -135 269 -288 398 -370 49 -32 52 -36 52 -76
0 -98 -53 -183 -129 -206 -37 -11 -47 -9 -125 22 -107 43 -188 91 -232 140
-37 40 -45 77 -16 77 23 0 83 36 107 66 21 24 21 24 68 8 27 -9 50 -14 53 -11
3 3 -29 24 -70 48 -42 24 -76 46 -76 50 0 4 16 17 36 28 43 26 40 40 -11 58
-50 17 -95 61 -130 125 -23 42 -25 54 -16 74 17 38 43 29 91 -33z m1490 -88
c51 -26 52 -95 3 -141 -33 -31 -67 -31 -98 1 -41 40 -27 112 26 141 31 17 34
17 69 -1z m346 -97 l24 -23 -44 3 c-73 6 -132 -38 -180 -134 -30 -61 -35 -151
-11 -198 20 -37 15 -41 -18 -16 -103 81 -49 318 88 382 51 24 109 18 141 -14z
m-1843 1 c12 -7 23 -13 25 -14 2 -2 -4 -14 -13 -28 -15 -23 -14 -26 10 -55
l26 -31 -33 -24 c-44 -34 -79 -41 -123 -27 -76 25 -68 74 25 147 63 49 55 46
83 32z m1852 -55 c24 -10 45 -58 45 -105 0 -64 -20 -116 -63 -165 -125 -142
-247 4 -149 180 44 77 108 112 167 90z m-446 -88 c24 -29 -20 -70 -47 -43 -11
12 -11 19 -3 36 13 24 33 27 50 7z m-836 -135 c38 -17 80 -44 93 -59 l24 -27
-33 -25 c-17 -14 -57 -49 -88 -77 -61 -58 -91 -65 -170 -42 l-38 12 32 21 c59
40 97 118 97 199 0 21 3 37 8 35 4 -2 38 -19 75 -37z m970 -46 c14 -36 -167
-149 -288 -180 -154 -39 -377 6 -457 93 l-23 24 35 -21 c50 -30 178 -69 253
-77 130 -13 322 49 418 135 49 45 54 47 62 26z m42 -100 c-49 -36 -160 -87
-231 -105 -113 -29 -132 -24 -35 10 77 26 201 99 232 136 11 13 15 13 33 -5
20 -21 20 -21 1 -36z m-680 -106 c33 -16 87 -35 120 -44 73 -19 228 -22 313
-5 119 24 230 -10 321 -98 l46 -44 -25 -10 c-74 -28 -135 -66 -162 -98 l-29
-37 -34 31 c-18 17 -38 50 -45 74 -7 23 -17 42 -21 42 -5 0 -10 -64 -11 -142
l-3 -143 -66 3 c-56 2 -214 34 -226 45 -2 2 4 23 12 47 31 88 14 165 -44 195
-15 7 -128 50 -251 95 -124 46 -227 84 -229 86 -7 6 50 63 98 99 l45 33 65
-51 c36 -27 93 -63 126 -78z m785 52 c25 -8 25 -8 -10 -23 -20 -8 -47 -29 -61
-45 l-25 -29 -39 17 c-22 10 -49 18 -60 18 -13 1 1 13 40 35 60 35 103 42 155
27z m112 -73 c70 -27 90 -186 42 -328 -3 -9 -21 18 -43 66 -27 56 -58 102
-104 150 -56 60 -63 72 -53 86 33 45 87 54 158 26z m-1248 -18 l25 -9 -34 -96
c-41 -112 -41 -118 -15 -168 25 -47 25 -66 -1 -138 l-21 -58 -72 26 c-88 31
-120 59 -118 105 2 50 99 310 124 331 22 19 73 22 112 7z m291 -107 c79 -28
105 -52 105 -95 0 -29 -90 -282 -113 -320 -7 -10 -26 -23 -43 -28 -30 -10 -77
2 -230 60 l-23 9 19 57 c25 73 25 115 -1 166 l-21 41 27 76 c15 42 31 86 36
98 l8 23 83 -31 c46 -17 115 -42 153 -56z m175 -68 c52 -27 64 -79 35 -149
-13 -30 -20 -36 -45 -36 -65 0 -91 -72 -44 -121 l26 -27 -21 -40 c-22 -42 -36
-52 -81 -52 -56 0 -63 9 -32 44 39 45 135 308 130 358 -2 21 -2 38 0 38 2 0
16 -7 32 -15z m739 -72 c79 -157 115 -382 72 -450 -27 -43 -63 -65 -107 -65
-45 0 -82 26 -111 78 -21 37 -24 39 -68 36 -56 -5 -57 5 -9 76 32 48 34 57 28
100 -3 26 -15 67 -25 91 -10 24 -19 50 -19 57 0 25 65 87 115 110 78 37 90 33
124 -33z m-280 -110 c17 -26 30 -52 28 -57 -2 -6 -23 -12 -47 -14 -40 -3 -42
-2 -36 20 3 13 6 40 6 61 0 20 4 37 9 37 5 0 23 -21 40 -47z m-1147 -87 c13
-8 111 -47 218 -86 315 -116 333 -121 363 -114 32 7 97 59 97 78 0 7 6 20 13
30 12 17 15 17 53 1 52 -22 191 -55 232 -55 l32 0 -19 -39 c-26 -49 -94 -108
-141 -121 -56 -15 -83 -50 -84 -109 -1 -62 -34 -101 -121 -142 -49 -24 -73
-29 -132 -29 -87 0 -95 7 -124 101 -18 58 -20 86 -16 157 3 48 7 96 9 106 2
16 -12 26 -77 54 -93 39 -285 96 -382 113 -38 7 -70 14 -72 15 -7 6 42 74 67
93 l26 19 18 -28 c9 -16 27 -36 40 -44z m775 10 c120 -42 306 -56 394 -30 19
5 32 -20 24 -47 -15 -45 -226 -50 -360 -9 -110 34 -185 70 -185 90 0 38 11 37
127 -4z m-837 -110 c87 -16 276 -72 354 -106 l45 -19 -6 -88 c-10 -150 34
-269 136 -374 49 -51 55 -61 43 -72 -24 -19 -52 -89 -52 -130 0 -42 22 -101
48 -130 47 -52 147 -72 215 -43 51 21 192 178 232 259 59 118 46 179 -59 271
-54 48 -102 113 -91 124 16 16 239 -154 343 -262 l82 -86 0 -87 0 -88 -78 -1
c-136 -3 -203 -33 -221 -102 -9 -30 -7 -44 10 -78 20 -43 93 -106 159 -139 19
-10 37 -19 39 -21 5 -4 -81 -162 -100 -183 -19 -21 -142 -56 -269 -78 -119
-20 -414 -20 -555 1 -337 50 -700 183 -958 352 -56 36 -103 67 -105 69 -1 1 3
49 9 106 22 215 73 432 146 623 60 158 124 295 142 300 34 11 408 -3 491 -18z
m-560 -4 c0 -5 -49 -18 -108 -30 -140 -28 -272 -71 -397 -132 -135 -65 -224
-126 -241 -164 l-13 -31 -1 27 c0 14 3 34 6 43 17 43 244 166 410 221 162 54
344 89 344 66z m1760 -39 c0 -3 -6 -14 -14 -22 -8 -9 -30 -42 -49 -74 -34 -56
-35 -57 -56 -40 l-22 18 28 57 c25 51 32 57 63 61 19 2 38 4 43 5 4 1 7 -1 7
-5z m62 -103 c29 0 39 -7 66 -45 l31 -44 -22 -16 c-29 -20 -66 -19 -132 6 -61
23 -66 34 -34 85 17 28 24 32 39 24 10 -6 34 -10 52 -10z m-2078 -49 c4 -5 -3
-7 -14 -4 -23 6 -26 13 -6 13 8 0 17 -4 20 -9z m-317 -107 c-3 -3 -12 -4 -19
-1 -8 3 -5 6 6 6 11 1 17 -2 13 -5z m2063 -162 c76 -75 80 -81 80 -123 0 -31
-10 -61 -33 -102 -44 -78 -160 -211 -201 -231 -72 -34 -155 -10 -197 56 -31
50 -22 129 19 171 28 27 34 29 57 19 43 -20 29 0 -56 78 l-81 75 63 2 c35 1
84 9 108 17 48 17 151 90 151 106 0 17 7 12 90 -68z m428 -19 c19 -3 32 -11
32 -20 0 -12 -10 -14 -50 -9 -27 3 -72 9 -99 12 -28 3 -56 13 -63 21 -11 14
-4 15 67 9 44 -4 95 -10 113 -13z m132 -29 c66 -20 94 -37 108 -68 l11 -25
-35 24 c-37 25 -40 26 -111 45 -26 6 -43 17 -43 25 0 19 4 19 70 -1z m190
-139 c0 -83 -55 -204 -80 -179 -7 7 -4 26 11 59 12 26 24 74 26 106 5 49 9 59
24 59 16 0 19 -8 19 -45z m162 -41 c53 -37 114 -112 101 -125 -5 -5 -36 -19
-69 -30 -69 -25 -164 -23 -190 3 -15 15 -15 20 -1 60 9 23 21 63 27 87 l11 43
40 -5 c22 -3 59 -18 81 -33z m-469 -20 c48 -24 85 -63 98 -101 6 -19 9 -37 6
-40 -3 -3 -37 0 -76 7 l-71 12 0 69 c0 38 2 69 5 69 4 0 20 -7 38 -16z m-15
-160 c40 -5 52 -11 52 -24 0 -15 -6 -16 -42 -9 -71 13 -249 10 -293 -6 -48
-18 -48 -18 -39 -4 3 6 25 20 48 30 43 20 167 25 274 13z m154 -34 c63 -19 98
-46 112 -85 6 -17 3 -16 -21 7 -24 22 -51 34 -150 64 -12 3 -19 34 -9 34 2 0
33 -9 68 -20z m185 -152 c-6 -62 -42 -168 -58 -168 -33 0 -35 12 -11 60 13 27
26 75 29 109 5 53 9 61 26 61 18 0 19 -5 14 -62z m128 -7 c22 -10 64 -44 94
-75 62 -66 60 -73 -26 -100 -105 -34 -214 -14 -198 37 6 17 42 143 44 155 2 8
52 -1 86 -17z m-528 -149 c26 -11 56 -22 65 -25 16 -6 15 -10 -6 -48 -35 -60
-69 -79 -143 -79 -35 0 -63 3 -63 8 0 4 9 21 21 37 11 17 31 51 45 78 13 26
26 47 29 47 2 0 26 -8 52 -18z m116 -122 c4 -17 3 -19 -9 -9 -8 6 -14 18 -14
26 0 20 16 8 23 -17z m71 -76 c-1 -75 -43 -178 -69 -168 -18 7 -18 7 14 94 11
30 20 74 21 98 0 36 3 43 18 40 14 -3 17 -14 16 -64z m152 -15 c35 -21 124
-113 124 -128 0 -13 -98 -49 -158 -57 -37 -5 -59 -2 -86 11 -20 10 -36 21 -36
25 0 4 9 33 20 65 11 32 20 66 20 75 0 42 54 46 116 9z"/>
<path d="M2497 2710 c-48 -38 -58 -120 -20 -162 8 -9 37 -24 64 -33 43 -15 50
-15 78 0 52 26 77 106 50 156 -12 23 -88 59 -123 59 -13 0 -35 -9 -49 -20z
m94 -34 c16 -35 4 -74 -26 -82 -30 -8 -75 19 -75 44 0 57 79 86 101 38z"/>
<path d="M1994 2051 c-178 -46 -299 -220 -280 -403 12 -122 100 -243 214 -296
49 -23 70 -27 152 -27 82 0 103 4 152 27 79 37 142 98 181 177 29 60 32 74 32
161 0 87 -3 101 -32 161 -62 126 -176 200 -313 205 -41 2 -89 0 -106 -5z m188
-41 c44 -13 81 -34 113 -62 46 -41 105 -120 105 -142 0 -5 -13 10 -28 35 -34
53 -92 101 -159 131 -37 17 -67 22 -133 22 -101 1 -170 -26 -246 -96 -42 -38
-45 -39 -26 -11 58 83 166 139 273 142 20 1 66 -8 101 -19z m-13 -134 c42 -22
98 -90 110 -132 17 -62 -11 -154 -61 -201 -97 -91 -258 -60 -314 61 -36 77
-29 144 22 212 48 65 173 96 243 60z"/>
</g>
</svg>
