<?xml version="1.0" standalone="no"?>
<!DOCTYPE svg PUBLIC "-//W3C//DTD SVG 20010904//EN"
 "http://www.w3.org/TR/2001/REC-SVG-20010904/DTD/svg10.dtd">
<svg version="1.0" xmlns="http://www.w3.org/2000/svg"
 width="500.000000pt" height="500.000000pt" viewBox="0 0 500.000000 500.000000"
 preserveAspectRatio="xMidYMid meet">

<g transform="translate(0.000000,500.000000) scale(0.100000,-0.100000)"
fill="#000000" stroke="none">
<path d="M2700 4364 c-134 -18 -328 -91 -435 -164 -118 -81 -262 -245 -314
-357 -21 -46 -30 -54 -71 -68 -91 -30 -122 -93 -140 -284 -13 -132 1 -265 35
-339 21 -46 31 -56 78 -77 46 -20 56 -29 70 -67 51 -133 212 -329 338 -412
l56 -37 -87 -88 c-143 -142 -216 -273 -227 -403 -8 -96 10 -152 67 -209 45
-45 45 -47 33 -78 -17 -41 -7 -77 28 -103 17 -13 35 -40 44 -67 8 -25 30 -192
50 -371 19 -179 38 -348 41 -376 6 -47 4 -53 -15 -64 -56 -30 -79 -125 -41
-173 35 -44 78 -52 286 -51 183 1 193 2 224 24 55 39 60 64 60 322 0 128 3
257 7 286 5 47 8 53 27 50 20 -3 21 -10 29 -233 4 -148 3 -240 -3 -259 -15
-43 -12 -104 6 -132 31 -47 68 -58 216 -62 76 -2 153 -1 173 2 40 8 93 49 106
82 8 23 22 228 35 522 l6 153 47 24 c102 51 140 125 176 344 32 187 11 562
-39 724 -21 69 -55 108 -127 147 l-62 33 29 20 c16 11 68 60 115 108 l87 89
54 0 c32 0 62 6 76 15 71 50 142 271 142 441 0 102 -16 147 -63 174 -32 19
-35 25 -40 83 -7 75 -48 210 -89 292 -132 261 -377 455 -658 520 -74 16 -262
27 -330 19z m312 -54 c186 -41 334 -126 469 -268 46 -49 106 -126 133 -171 52
-87 109 -242 121 -328 6 -49 6 -51 -14 -46 -14 4 -24 18 -31 47 -73 289 -233
495 -487 628 -166 86 -305 120 -495 121 -70 1 -126 3 -123 5 2 3 28 10 57 18
82 19 268 17 370 -6z m-156 -61 c349 -48 647 -286 758 -605 40 -114 41 -135 6
-162 -22 -17 -31 -20 -34 -10 -1 7 -10 45 -19 83 -10 39 -38 112 -63 164 -96
195 -314 370 -536 431 -163 44 -329 45 -493 4 -152 -38 -346 -164 -441 -285
-26 -32 -49 -59 -51 -59 -10 0 46 94 95 158 66 88 168 177 237 207 172 76 353
100 541 74z m-56 -215 c36 -9 97 -31 135 -49 70 -32 195 -119 195 -135 0 -5
-17 -3 -37 4 -117 41 -230 60 -363 60 -194 0 -306 -35 -422 -134 -94 -81 -198
-281 -231 -445 l-14 -70 -22 69 c-24 79 -27 176 -7 251 54 204 276 425 466
465 62 13 221 4 300 -16z m-915 -343 c-8 -23 -22 -82 -31 -129 -20 -107 -15
-309 11 -390 9 -30 14 -56 12 -59 -13 -12 -47 21 -67 64 -19 40 -24 70 -28
178 -7 210 21 340 81 368 17 9 33 14 34 13 2 -2 -4 -22 -12 -45z m1863 -256
c3 -2 -9 -26 -26 -52 -43 -67 -89 -212 -100 -317 -6 -49 -9 -94 -7 -100 2 -6
6 -32 9 -58 l6 -48 -40 0 c-59 0 -72 25 -71 147 0 103 17 199 51 297 22 63 74
152 93 159 11 4 74 -17 85 -28z m-437 -20 c118 -61 74 -275 -56 -275 -50 0
-89 23 -109 64 -60 126 52 269 165 211z m517 -30 c16 -36 15 -170 -3 -253 -28
-137 -93 -272 -130 -272 -18 0 -35 61 -35 126 0 71 26 202 56 283 23 63 75
141 93 141 4 0 13 -11 19 -25z m-574 -331 c25 -24 20 -71 -8 -89 -49 -33 -96
28 -62 80 19 29 47 32 70 9z m201 -230 c-104 -126 -282 -236 -466 -286 -72
-20 -107 -23 -254 -23 -234 0 -329 27 -475 136 -77 56 -151 132 -206 209 l-39
55 70 -69 c128 -126 261 -204 420 -248 66 -18 107 -21 235 -21 141 0 163 2
245 27 176 54 331 155 432 282 l48 60 12 -39 c12 -39 12 -42 -22 -83z m76 -21
c-13 -24 -94 -101 -157 -150 -95 -73 -269 -152 -372 -168 -20 -3 1 7 48 23
166 56 298 138 408 252 56 58 94 80 73 43z m-134 -260 l58 -27 -44 -4 c-34 -3
-48 1 -67 19 -13 12 -21 26 -18 30 7 12 6 12 71 -18z m-981 -38 c248 -109 535
-112 784 -6 83 36 83 36 156 -41 117 -120 192 -274 202 -410 3 -55 1 -78 -7
-78 -6 0 -11 7 -11 15 0 32 -41 94 -92 140 -29 26 -52 54 -50 62 2 8 -3 13
-13 11 -12 -2 -26 22 -54 97 -57 148 -71 176 -81 170 -5 -3 -2 -28 6 -58 15
-49 47 -159 60 -201 6 -17 2 -18 -47 -12 -68 9 -103 24 -208 91 -48 30 -114
65 -147 77 -101 36 -211 25 -253 -26 -12 -14 -17 -13 -45 9 -50 38 -114 48
-192 30 -36 -8 -74 -20 -86 -26 -11 -6 -22 -8 -25 -6 -2 3 10 38 27 77 17 39
29 74 26 78 -10 9 -22 -8 -71 -103 -50 -96 -68 -115 -127 -134 -21 -7 -38 -18
-38 -25 0 -7 -13 -25 -30 -41 -16 -16 -30 -25 -30 -21 0 16 46 96 91 157 42
57 180 199 194 199 2 0 30 -11 61 -25z m1056 -41 c41 -7 48 -19 73 -124 22
-98 18 -109 -16 -44 -17 32 -51 85 -75 117 -45 59 -45 61 18 51z m-894 -153
c18 -12 32 -30 32 -40 0 -15 -8 -18 -55 -17 -65 1 -93 -21 -132 -102 -16 -35
-38 -62 -64 -79 -39 -25 -54 -51 -23 -39 9 3 19 6 24 6 5 0 23 12 41 27 26 22
33 25 37 13 3 -8 45 -56 94 -107 48 -50 88 -98 88 -106 0 -8 -7 -20 -15 -27
-12 -10 -29 -7 -90 15 -80 30 -89 30 -222 1 -99 -22 -147 -13 -195 33 -76 76
-70 186 15 273 39 40 209 134 302 167 47 17 127 8 163 -18z m303 9 c35 -10
113 -49 173 -84 115 -69 190 -93 252 -82 25 5 42 1 71 -17 52 -33 121 -110
128 -144 4 -15 8 -33 10 -40 7 -23 -22 -114 -45 -138 -27 -29 -100 -61 -160
-70 -69 -10 -176 17 -308 79 -65 31 -130 56 -144 56 -14 0 -56 -11 -93 -25
-77 -29 -95 -27 -95 12 0 21 17 43 75 98 42 39 83 82 93 97 l18 27 35 -23 c39
-28 79 -42 79 -28 0 5 -18 21 -39 35 -26 17 -48 44 -64 79 -48 100 -102 123
-200 83 -14 -6 -16 -3 -11 11 17 49 82 93 135 94 15 0 55 -9 90 -20z m-276
-142 l36 -31 27 22 c65 52 111 52 137 1 22 -42 11 -73 -48 -130 -50 -49 -52
-50 -112 -50 -58 0 -63 2 -103 40 -60 58 -77 94 -61 131 23 57 71 64 124 17z
m965 -441 c-17 -110 -40 -154 -95 -178 -44 -19 -48 -20 -65 -4 -17 15 -17 21
-5 58 7 23 16 54 19 68 3 14 35 55 70 92 35 36 68 76 73 89 14 39 16 -42 3
-125z m-1098 87 c38 -12 47 -20 52 -45 4 -20 17 -36 41 -50 l35 -21 0 -74 0
-74 -95 0 c-83 0 -96 2 -105 19 -15 29 -13 248 3 254 19 8 21 8 69 -9z m467
-21 l31 -18 0 -100 c0 -65 -4 -105 -12 -113 -8 -8 -59 -12 -165 -12 l-153 0 0
78 c0 83 -2 86 -60 132 l-25 19 28 1 c16 0 37 5 47 10 13 7 21 7 25 0 3 -5 21
-10 40 -10 28 0 32 -3 28 -20 -8 -31 17 -79 50 -96 39 -21 90 -11 117 23 22
29 27 92 8 111 -18 18 5 15 41 -5z m-75 -15 c22 -36 -18 -67 -70 -54 -27 7
-33 43 -12 64 18 18 69 11 82 -10z m-524 -49 l0 -52 -82 8 c-46 4 -91 11 -100
16 -18 10 -25 59 -11 72 3 4 48 7 100 7 l93 0 0 -51z m737 0 c15 -7 60 -20 98
-30 l70 -18 -89 0 c-91 -1 -126 12 -126 46 0 16 10 16 47 2z m298 -106 c-4
-20 -18 -59 -32 -86 -19 -38 -22 -52 -12 -57 9 -6 11 -53 6 -206 -4 -108 -9
-199 -10 -201 -25 -25 -347 -36 -409 -14 l-38 13 0 87 0 88 63 16 c84 21 117
34 117 48 0 7 -11 9 -32 5 -98 -18 -207 -27 -322 -25 -85 2 -131 -1 -133 -8
-4 -11 77 -33 117 -33 46 0 50 -8 50 -95 l0 -84 -47 -7 c-126 -21 -390 -3
-408 26 -3 5 -12 73 -20 152 -8 78 -17 160 -20 180 -4 31 -2 36 10 32 21 -8
19 0 -14 70 -16 33 -32 73 -35 89 l-6 27 68 0 69 0 6 -42 c4 -31 14 -51 37
-70 l30 -28 305 0 305 0 30 28 c23 19 33 39 37 70 l6 42 106 1 c58 1 120 5
136 9 17 4 34 8 39 9 4 0 5 -16 1 -36z m-335 -2 c0 -16 -3 -36 -6 -45 -12 -30
-19 -16 -16 29 4 50 22 62 22 16z m480 -118 c0 -14 -42 -77 -59 -90 -9 -6 -28
-19 -43 -28 l-28 -16 0 60 0 61 38 1 c20 0 46 4 57 9 26 11 35 12 35 3z
m-1050 -479 c63 -3 150 -2 193 3 l77 9 0 -160 c0 -89 -5 -178 -10 -198 -18
-65 -31 -68 -245 -68 -207 0 -233 6 -250 53 -24 71 64 128 207 135 48 3 88 8
88 13 0 11 -102 22 -164 17 l-54 -4 -11 86 c-6 47 -11 98 -11 112 0 25 2 26
33 17 17 -6 84 -12 147 -15z m600 -9 c58 0 140 4 182 8 l77 9 -4 -64 c-3 -35
-8 -116 -11 -182 -6 -111 -8 -120 -34 -150 -28 -31 -29 -31 -141 -34 -154 -5
-216 4 -246 34 -22 22 -24 30 -18 67 5 23 8 106 9 185 l1 143 40 -8 c22 -4 87
-8 145 -8z"/>
<path d="M2989 830 c-39 -7 -89 -25 -89 -33 0 -1 79 -2 175 -2 96 0 175 3 175
7 0 23 -183 43 -261 28z"/>
<path d="M1174 2512 c-108 -61 -151 -150 -124 -262 16 -66 74 -130 185 -205
47 -32 107 -82 133 -111 26 -30 51 -54 55 -54 4 0 35 29 68 65 33 35 90 83
125 105 141 89 183 149 184 258 0 128 -91 222 -215 222 -53 0 -88 -16 -129
-59 l-30 -31 -35 34 c-20 19 -49 40 -64 45 -42 16 -118 12 -153 -7z m146 -37
c44 -23 70 -66 70 -119 0 -61 19 -60 48 4 33 72 76 118 119 126 80 15 171 -45
193 -127 10 -37 8 -47 -15 -94 -43 -88 -115 -140 -240 -171 -57 -15 -76 -15
-135 -5 -63 12 -183 62 -221 93 -28 23 -49 76 -49 123 0 128 128 223 230 170z"/>
</g>
</svg>
