<?xml version="1.0" standalone="no"?>
<!DOCTYPE svg PUBLIC "-//W3C//DTD SVG 20010904//EN"
 "http://www.w3.org/TR/2001/REC-SVG-20010904/DTD/svg10.dtd">
<svg version="1.0" xmlns="http://www.w3.org/2000/svg"
 width="500.000000pt" height="500.000000pt" viewBox="0 0 500.000000 500.000000"
 preserveAspectRatio="xMidYMid meet">

<g transform="translate(0.000000,500.000000) scale(0.100000,-0.100000)"
fill="#000000" stroke="none">
<path d="M2655 4329 c-184 -27 -359 -113 -496 -246 -61 -59 -68 -63 -93 -53
-39 15 -112 12 -145 -5 -49 -25 -74 -66 -125 -201 l-49 -131 -39 0 c-44 0
-103 -37 -143 -89 -14 -19 -30 -34 -34 -34 -4 0 -23 21 -41 47 -91 126 -229
243 -288 243 -13 0 -37 -14 -54 -30 -28 -28 -30 -35 -26 -85 3 -33 17 -79 37
-119 l32 -65 -52 -68 c-68 -89 -119 -197 -121 -254 -1 -87 55 -166 175 -246
42 -28 153 -128 266 -239 l195 -191 -17 -60 c-21 -74 -47 -267 -47 -348 0 -37
-7 -75 -16 -94 -20 -40 -12 -175 16 -261 9 -30 25 -81 34 -112 21 -72 80 -127
172 -160 46 -16 63 -27 60 -38 -3 -8 -17 -139 -31 -290 -15 -151 -29 -280 -30
-287 -2 -6 -31 -26 -65 -44 -73 -39 -115 -84 -131 -141 -22 -82 24 -151 120
-178 20 -6 95 -13 166 -16 277 -13 414 38 464 171 11 29 47 198 81 376 63 333
69 363 76 357 4 -4 16 -139 34 -383 16 -208 36 -347 57 -392 33 -70 95 -97
261 -115 194 -21 387 14 429 78 61 94 18 196 -108 256 l-55 26 -18 193 c-9
107 -26 259 -37 339 -26 201 -29 186 35 193 108 11 195 68 241 157 72 142 23
294 -223 688 -35 57 -63 104 -61 106 2 1 35 15 73 31 92 38 197 108 276 184
58 55 68 61 88 51 62 -28 165 -2 202 50 38 53 123 291 124 345 1 69 -30 117
-93 147 l-48 23 -6 85 c-22 296 -186 563 -438 713 -172 101 -388 144 -584 116z
m323 -59 c160 -38 300 -119 413 -236 76 -80 114 -134 158 -224 l32 -65 -56 62
c-151 167 -401 300 -677 359 -113 25 -377 26 -463 2 -32 -10 -61 -16 -63 -14
-6 7 89 57 156 82 103 40 176 52 302 53 83 1 138 -5 198 -19z m-137 -150 c344
-70 633 -260 749 -492 22 -44 40 -88 40 -97 0 -9 -13 12 -30 47 -82 173 -255
316 -506 417 -349 140 -689 153 -901 34 -66 -36 -69 -31 -5 8 172 106 398 135
653 83z m-785 -132 c2 -3 -16 -38 -40 -78 -60 -97 -98 -203 -132 -367 -6 -31
-26 -29 -62 5 -50 47 -50 79 4 227 25 72 53 143 61 158 22 44 70 69 121 64 24
-3 45 -7 48 -9z m980 -125 c154 -60 353 -221 409 -333 59 -116 41 -282 -52
-470 l-47 -95 -8 130 c-20 347 -68 475 -248 656 -52 53 -111 108 -130 122
l-35 27 30 -9 c17 -5 53 -18 81 -28z m-1761 -84 c48 -33 102 -89 180 -186 31
-40 64 -73 72 -73 7 0 45 29 83 65 77 73 115 84 126 40 8 -31 1 -58 -37 -157
-16 -43 -29 -84 -29 -93 0 -23 65 -115 163 -230 l85 -100 -26 -49 c-40 -72
-153 -189 -240 -246 l-76 -51 -143 143 c-79 78 -143 145 -143 148 0 3 16 12
36 19 50 18 136 108 173 181 50 101 41 153 -41 252 -47 57 -146 125 -195 134
-32 6 -38 13 -69 78 -40 82 -44 128 -13 150 25 17 39 13 94 -25z m1020 -13
c65 -65 50 -209 -28 -256 -41 -25 -68 -25 -100 1 -36 27 -51 84 -43 153 14
107 109 164 171 102z m-979 -262 c58 -33 151 -136 165 -184 11 -35 9 -44 -15
-93 -50 -104 -134 -180 -212 -192 -36 -6 -45 -3 -91 34 -60 47 -103 114 -103
159 0 64 49 159 138 270 39 47 46 48 118 6z m540 -30 c21 -5 24 -12 24 -53 0
-72 18 -169 49 -258 16 -46 24 -80 19 -77 -27 17 -205 230 -228 274 -6 12 -3
33 10 66 10 27 23 62 29 77 l11 29 31 -26 c17 -14 41 -29 55 -32z m452 -122
c28 -36 3 -112 -37 -112 -33 0 -61 30 -61 64 0 66 59 95 98 48z m1451 -38 c32
-41 26 -89 -30 -236 -53 -139 -72 -168 -120 -188 -30 -13 -99 -6 -99 10 0 5
14 29 30 54 58 85 109 222 130 344 l12 72 28 -15 c16 -8 38 -27 49 -41z
m-1669 -453 c116 -134 273 -235 447 -287 112 -33 291 -43 401 -21 l73 14 28
-41 c62 -91 195 -316 189 -321 -1 -1 -37 -5 -80 -7 -74 -5 -77 -4 -88 21 -7
14 -23 80 -36 145 -27 128 -29 136 -46 136 -11 0 -6 -89 9 -183 l6 -38 -34 3
c-19 2 -153 -1 -299 -6 -195 -6 -275 -12 -302 -23 -48 -19 -78 -67 -78 -123
l0 -43 -112 6 c-62 3 -131 12 -153 20 l-40 14 3 74 c3 50 9 80 20 92 9 10 12
21 6 26 -5 5 -40 35 -79 67 -38 32 -125 107 -192 167 l-123 109 71 50 c93 65
175 148 229 232 l44 68 40 -44 c23 -24 66 -72 96 -107z m233 -85 c102 -58 225
-103 338 -126 85 -18 131 -21 251 -18 81 2 141 0 135 -4 -31 -17 -176 -38
-261 -38 -260 0 -495 108 -658 302 l-43 52 86 -66 c48 -36 116 -82 152 -102z
m-540 -328 c45 -40 99 -86 120 -103 l37 -30 -11 -88 c-10 -82 -13 -91 -46
-121 l-35 -32 -87 8 c-146 14 -135 4 -127 111 12 159 42 327 58 327 5 0 46
-33 91 -72z m1077 -317 l0 -109 -40 -42 -40 -42 0 -83 0 -82 -120 -8 c-130 -7
-155 -1 -180 45 -6 11 -14 96 -17 188 l-6 167 26 30 c25 30 26 30 159 36 73 3
152 6 176 7 l42 2 0 -109z m144 77 l33 -33 7 -157 c6 -134 4 -162 -9 -189 -22
-41 -69 -59 -155 -59 l-70 0 0 75 c0 75 0 76 42 121 l43 46 -3 114 -3 114 42
0 c33 0 47 -6 73 -32z m-581 -25 c-11 -28 -14 -55 -10 -100 4 -35 4 -63 2 -63
-3 0 -11 13 -19 29 -8 15 -29 34 -46 41 -24 10 -30 18 -30 42 0 40 48 88 89
88 l30 0 -16 -37z m838 -39 c4 -2 21 -40 38 -84 71 -183 13 -326 -152 -375
-46 -14 -130 -21 -99 -8 10 4 10 9 -3 23 -15 17 -14 22 15 79 l32 61 -4 140
c-3 156 4 171 46 98 24 -43 56 -164 56 -213 0 -15 4 -24 10 -20 6 3 10 44 10
89 0 90 -18 157 -50 191 -11 12 -17 25 -13 29 8 8 99 0 114 -10z m-1246 -74
c58 -15 111 -20 206 -20 117 0 129 -2 139 -19 14 -28 12 -84 -4 -107 -13 -17
-27 -19 -173 -19 -141 1 -164 3 -216 24 -62 24 -77 42 -77 92 0 29 23 69 40
69 4 0 42 -9 85 -20z m-196 -39 c30 -8 38 -33 40 -122 2 -88 -32 -159 -75
-159 -11 0 -11 5 0 33 18 42 31 138 17 117 -6 -8 -11 -23 -11 -33 0 -31 -40
-97 -66 -109 -20 -10 -29 -8 -52 9 -44 32 -56 69 -60 182 l-4 103 92 -7 c51
-4 104 -10 119 -14z m620 -249 c16 -30 10 -36 -28 -27 -58 13 -113 115 -62
115 21 0 60 43 63 69 0 9 4 -18 8 -59 3 -41 12 -86 19 -98z m-344 78 c44 -5
103 -7 132 -4 51 7 52 6 58 -22 10 -48 29 -77 65 -102 l35 -24 245 6 c135 4
266 9 293 13 62 7 61 -4 -8 -73 -81 -82 -210 -138 -362 -158 l-42 -6 6 72 c4
57 3 70 -7 62 -13 -13 -61 -197 -81 -311 -6 -39 -15 -77 -19 -84 -6 -8 -54
-12 -166 -11 -151 0 -242 9 -326 34 -47 14 -47 -4 -8 337 17 145 30 271 30
279 0 11 8 13 38 8 20 -4 73 -11 117 -16z m-224 -206 c-6 -54 -13 -99 -14
-100 -1 -1 -24 6 -52 17 -63 23 -120 70 -133 108 l-11 30 49 -6 c66 -8 114 3
142 32 12 13 24 22 27 20 2 -2 -2 -48 -8 -101z m1161 -294 l3 -74 -55 -22
c-98 -40 -306 -70 -382 -57 -26 5 -26 7 -33 102 -4 53 -8 105 -8 116 -1 12 5
20 18 22 148 24 276 79 362 158 l58 53 17 -112 c10 -61 19 -145 20 -186z m21
-157 c4 -21 9 -81 12 -133 3 -52 8 -107 10 -122 4 -25 2 -26 -58 -33 -73 -8
-157 -33 -157 -47 0 -6 12 -7 33 -1 17 4 70 8 117 8 73 0 93 -4 142 -28 136
-67 159 -176 49 -229 -39 -19 -67 -23 -192 -26 -228 -7 -345 22 -374 93 -17
39 -41 214 -51 368 l-7 107 71 0 c105 0 217 18 307 49 44 16 83 29 86 30 4 0
9 -16 12 -36z m-1078 -10 c48 -11 125 -16 247 -17 98 -1 178 -4 178 -7 0 -24
-83 -413 -96 -446 -20 -56 -71 -98 -142 -120 -84 -26 -376 -26 -445 0 -54 21
-77 48 -77 92 0 47 41 97 112 136 62 34 65 34 188 34 109 0 131 -3 174 -23 55
-25 74 -21 36 8 -41 31 -120 52 -217 57 -77 5 -93 9 -93 22 0 9 7 75 15 146 8
72 15 134 15 139 0 4 8 5 18 1 9 -4 49 -14 87 -22z"/>
<path d="M2553 2099 c-81 -24 -93 -156 -19 -204 34 -23 127 -16 156 10 29 26
42 81 29 128 -17 65 -82 90 -166 66z m115 -42 c19 -22 25 -66 12 -82 -15 -18
-53 -19 -82 -4 -16 9 -19 17 -14 41 3 17 11 37 17 45 14 16 53 17 67 0z"/>
</g>
</svg>
