<?xml version="1.0" standalone="no"?>
<!DOCTYPE svg PUBLIC "-//W3C//DTD SVG 20010904//EN"
 "http://www.w3.org/TR/2001/REC-SVG-20010904/DTD/svg10.dtd">
<svg version="1.0" xmlns="http://www.w3.org/2000/svg"
 width="500.000000pt" height="500.000000pt" viewBox="0 0 500.000000 500.000000"
 preserveAspectRatio="xMidYMid meet">

<g transform="translate(0.000000,500.000000) scale(0.100000,-0.100000)"
fill="#000000" stroke="none">
<path d="M1865 4293 c-265 -56 -515 -269 -615 -523 -72 -182 -80 -403 -24
-582 l15 -47 -40 -53 c-82 -109 -116 -219 -109 -349 14 -234 234 -389 576
-404 64 -3 117 -7 120 -9 2 -3 7 -21 12 -41 8 -33 5 -39 -22 -64 -23 -20 -31
-38 -35 -75 -8 -64 16 -109 68 -133 21 -10 39 -21 39 -24 0 -4 -39 -28 -86
-55 -103 -58 -222 -165 -263 -237 -51 -91 -61 -143 -61 -331 l0 -171 -47 -19
c-57 -24 -126 -85 -143 -126 -7 -18 -11 -54 -8 -87 4 -51 9 -61 42 -89 72 -62
242 -90 446 -74 288 24 324 63 365 395 38 308 93 365 353 365 288 -1 400 -83
532 -392 71 -166 125 -273 151 -296 45 -42 130 -57 339 -57 174 0 203 2 265
22 112 35 150 91 125 183 -17 62 -94 139 -189 189 l-77 40 -42 133 c-35 109
-117 333 -146 398 -4 11 8 24 41 45 76 47 140 113 159 161 32 84 4 269 -72
474 -42 116 -114 273 -135 295 -20 20 -5 36 109 111 162 108 305 251 357 356
60 122 60 218 2 285 -47 53 -97 73 -191 73 -147 0 -317 -73 -603 -262 -91 -60
-167 -107 -170 -104 -7 6 17 86 25 86 13 0 73 62 99 101 50 76 47 217 -8 319
-34 64 -115 140 -180 169 -28 13 -57 40 -93 87 -111 146 -290 263 -473 310
-113 29 -293 32 -408 7z m385 -43 c166 -40 340 -148 443 -275 l47 -60 -36 -12
c-19 -7 -47 -21 -61 -31 l-25 -18 -67 66 c-116 115 -279 201 -443 234 -161 33
-376 15 -511 -43 -60 -26 -66 -26 -36 -2 75 59 218 123 323 146 96 21 266 18
366 -5z m-184 -131 c179 -31 344 -117 466 -241 51 -51 56 -61 47 -81 -10 -22
-14 -19 -98 64 -76 75 -103 94 -192 137 -212 102 -407 116 -617 46 -148 -49
-288 -154 -360 -269 -18 -27 -32 -46 -32 -42 0 16 83 169 107 198 56 66 233
154 368 184 74 16 231 19 311 4z m-203 -233 c-176 -93 -312 -216 -377 -342
-26 -51 -30 -72 -34 -160 l-4 -101 -45 -22 c-25 -12 -48 -19 -51 -16 -12 12
-14 253 -3 304 30 140 121 251 265 321 104 51 172 69 271 69 l80 1 -102 -54z
m920 -22 c3 -4 -8 -16 -26 -28 -96 -65 -111 -224 -34 -369 33 -62 68 -95 133
-124 l39 -18 -40 -3 c-92 -8 -176 51 -231 164 -26 52 -29 69 -29 154 0 86 3
99 28 143 21 35 41 54 70 68 43 19 79 24 90 13z m106 -64 c71 -36 120 -124
128 -231 7 -81 -8 -130 -48 -164 -59 -49 -135 -23 -196 69 -42 62 -56 115 -51
198 4 73 24 112 69 135 33 18 54 16 98 -7z m-485 -41 c61 -48 75 -135 30 -188
-49 -58 -146 -35 -184 44 -11 23 -20 51 -20 64 0 29 25 77 47 90 31 18 98 13
127 -10z m1397 -245 c104 -60 85 -231 -43 -379 -68 -80 -214 -205 -237 -205
-23 0 -81 52 -127 114 -53 70 -107 173 -140 266 l-22 64 29 18 c54 33 174 91
238 115 117 44 233 47 302 7z m-1303 -20 c14 -10 22 -25 22 -44 0 -24 -5 -31
-27 -36 -47 -12 -86 62 -45 85 23 14 24 14 50 -5z m-438 -149 c108 -29 170
-97 170 -188 0 -61 -18 -104 -66 -157 -55 -61 -93 -82 -245 -135 -74 -26 -165
-63 -203 -81 -39 -19 -82 -34 -96 -34 -89 0 -209 88 -256 188 -32 67 -43 181
-22 221 17 33 148 102 265 140 172 58 344 75 453 46z m1165 -60 c53 -142 138
-279 216 -349 32 -30 39 -41 28 -47 -93 -58 -290 -165 -360 -196 -49 -21 -89
-43 -89 -49 0 -10 48 -149 75 -216 5 -13 -2 -21 -32 -33 -62 -27 -122 -44
-231 -65 -138 -27 -138 -27 -146 15 -8 42 -63 101 -103 109 -36 8 -649 -41
-673 -54 -10 -5 -32 -26 -48 -45 l-29 -36 -13 59 c-15 72 -23 87 -44 79 -13
-5 -15 -15 -10 -45 7 -46 5 -46 -151 -32 -222 22 -371 100 -452 237 -26 45
-28 55 -28 158 0 105 2 113 36 185 20 41 56 97 80 123 l44 49 2 -64 c2 -91 34
-167 99 -237 47 -52 119 -98 177 -115 15 -5 16 -8 5 -26 -9 -14 -10 -25 -3
-36 17 -27 30 -21 52 24 0 2 24 -8 51 -22 28 -14 90 -38 139 -53 78 -23 105
-26 238 -27 128 -1 162 3 230 22 242 70 438 230 543 443 l47 96 155 106 c85
58 159 105 164 104 4 -2 18 -30 31 -62z m-495 -9 c0 -41 -38 -173 -66 -228
-99 -195 -257 -329 -478 -404 -54 -19 -89 -24 -155 -23 -134 2 -164 14 -56 22
368 28 666 290 711 626 6 45 8 49 25 40 11 -5 19 -20 19 -33z m124 -59 c-24
-83 -99 -227 -157 -297 -56 -69 -157 -155 -222 -191 l-40 -21 40 33 c155 128
250 278 289 459 l17 75 44 -3 43 -4 -14 -51z m504 -469 c39 -49 148 -306 135
-319 -5 -4 -53 -26 -108 -49 -55 -23 -105 -48 -112 -56 -10 -13 -12 -12 -18 6
-10 33 -65 90 -86 90 -22 0 -34 20 -69 124 l-27 81 131 67 c72 37 134 67 137
67 4 1 11 -5 17 -11z m-768 -343 c47 -24 77 -96 45 -109 -24 -9 -55 -68 -55
-104 0 -49 25 -100 60 -120 25 -14 30 -23 30 -54 0 -50 -41 -96 -93 -105 l-37
-6 16 38 c14 34 14 54 -1 219 -13 138 -21 189 -36 214 -10 18 -19 35 -19 38 0
10 64 3 90 -11z m-140 -12 c16 -9 33 -28 40 -41 6 -14 16 -103 22 -199 12
-194 9 -211 -46 -237 -18 -8 -81 -17 -147 -21 l-116 -7 -14 93 c-15 99 -13 96
-94 145 -15 8 -20 32 -28 127 -6 64 -8 120 -5 123 4 4 225 25 341 33 11 0 32
-6 47 -16z m-417 -103 c16 -176 13 -168 67 -201 52 -32 54 -37 62 -164 l3 -40
-93 -9 c-102 -10 -131 -3 -156 36 -18 29 -49 358 -37 391 17 43 77 78 126 74
18 -2 21 -12 28 -87z m1158 64 c32 -35 33 -109 0 -135 -31 -25 -121 -58 -221
-80 -96 -21 -284 -41 -306 -32 -19 7 -44 56 -44 86 0 50 27 67 135 83 122 18
241 48 315 79 73 30 92 30 121 -1z m340 -1 c20 -51 36 -148 31 -190 -5 -49
-40 -93 -73 -93 -33 0 -95 73 -118 139 -25 73 -27 41 -2 -39 11 -34 30 -73 42
-86 l22 -24 -21 0 c-42 0 -99 111 -105 204 l-2 39 90 38 c110 46 122 47 136
12z m-261 -133 c0 -35 41 -131 72 -166 48 -54 130 -58 202 -9 35 23 36 24 36
4 0 -35 -26 -83 -66 -121 -40 -37 -111 -88 -124 -88 -4 0 -40 77 -79 170 -57
135 -71 177 -66 200 7 34 25 41 25 10z m-1430 -64 c0 -29 3 -68 6 -85 8 -39
-8 -41 -41 -5 -32 35 -33 89 -3 121 12 13 25 23 30 23 4 0 8 -24 8 -54z m1457
-221 c52 -121 108 -255 124 -297 l28 -77 -25 -31 c-55 -65 -270 -145 -424
-156 l-75 -6 -17 30 c-10 16 -45 54 -77 85 -98 90 -216 122 -424 115 -99 -4
-132 -9 -175 -27 -48 -22 -104 -71 -114 -102 -3 -9 -19 -1 -50 27 -75 65 -262
132 -457 163 -35 6 -66 13 -69 15 -7 8 26 54 72 101 46 45 137 110 202 143
l42 21 12 -30 c14 -34 62 -73 99 -82 14 -3 164 5 335 19 337 27 352 30 389 92
9 17 17 50 17 75 l0 44 73 7 c104 10 256 42 329 70 35 13 69 23 76 22 8 0 56
-99 109 -221z m-1512 -351 c113 -31 200 -71 248 -114 50 -44 58 -60 47 -101
-5 -19 -18 -101 -29 -184 -28 -207 -47 -262 -105 -300 -39 -26 -170 -44 -318
-45 -247 0 -348 42 -348 145 0 61 37 107 117 147 65 32 72 33 179 32 61 -1
124 -4 140 -8 47 -12 15 10 -41 28 -27 8 -83 19 -122 22 l-73 7 0 161 c0 150
9 225 31 252 12 14 149 -6 274 -42z m1724 -197 c23 -67 41 -125 41 -128 0 -3
-23 -9 -52 -12 -68 -8 -152 -50 -183 -91 -36 -48 -31 -50 20 -11 52 39 95 54
181 62 57 5 66 3 133 -32 133 -70 206 -170 170 -233 -34 -61 -147 -92 -340
-92 -120 0 -271 20 -310 40 -20 11 -73 111 -129 245 -23 55 -53 121 -66 146
l-23 47 53 6 c157 20 381 101 431 155 10 12 22 21 26 21 4 0 26 -55 48 -123z"/>
<path d="M2335 2263 c-11 -2 -30 -6 -43 -9 -30 -6 -62 -60 -62 -104 0 -41 29
-94 61 -111 14 -7 45 -9 83 -6 81 7 106 34 106 114 0 49 -4 59 -34 89 -33 33
-56 39 -111 27z m27 -50 c10 -9 18 -30 18 -49 0 -70 -98 -86 -111 -19 -13 67
46 111 93 68z"/>
</g>
</svg>
