<?xml version="1.0" standalone="no"?>
<!DOCTYPE svg PUBLIC "-//W3C//DTD SVG 20010904//EN"
 "http://www.w3.org/TR/2001/REC-SVG-20010904/DTD/svg10.dtd">
<svg version="1.0" xmlns="http://www.w3.org/2000/svg"
 width="500.000000pt" height="500.000000pt" viewBox="0 0 500.000000 500.000000"
 preserveAspectRatio="xMidYMid meet">

<g transform="translate(0.000000,500.000000) scale(0.100000,-0.100000)"
fill="#000000" stroke="none">
<path d="M2370 4505 c-144 -29 -276 -91 -388 -181 -136 -110 -233 -248 -287
-405 -27 -81 -31 -87 -74 -110 -29 -15 -54 -39 -69 -64 -23 -39 -23 -45 -17
-210 3 -93 11 -188 16 -210 19 -71 106 -135 184 -135 13 0 30 -16 48 -45 16
-25 49 -70 74 -100 25 -31 44 -57 42 -58 -2 -2 -16 -8 -31 -15 -50 -21 -63
-56 -60 -157 3 -90 3 -92 -34 -148 l-37 -57 -33 29 c-21 19 -53 33 -91 41 -32
7 -235 50 -452 95 -429 90 -437 91 -466 34 -20 -38 -19 -173 1 -280 35 -188
129 -416 206 -503 21 -24 55 -51 77 -59 24 -10 45 -27 53 -44 18 -37 68 -69
129 -82 36 -8 60 -21 83 -45 62 -66 203 -83 309 -39 37 16 57 17 169 9 l126
-9 4 -84 c3 -83 4 -85 40 -119 22 -20 48 -34 63 -34 15 0 25 -6 25 -14 0 -35
44 -346 71 -504 16 -95 29 -176 29 -180 0 -4 -23 -17 -50 -30 -33 -15 -59 -37
-76 -61 -30 -46 -41 -124 -24 -175 22 -67 22 -67 364 -64 l306 3 32 33 33 32
-4 355 c-2 195 -1 355 2 355 3 0 11 -17 17 -37 7 -21 39 -94 71 -163 84 -179
99 -274 54 -351 -41 -73 -29 -204 20 -223 9 -3 123 -6 253 -6 264 0 292 6 345
69 37 44 36 96 -7 313 -70 351 -113 681 -101 773 5 42 11 55 31 66 45 24 56
60 49 158 -6 73 -4 93 10 121 13 26 16 46 11 88 -6 49 -5 54 11 46 10 -4 52
-9 94 -12 62 -3 83 0 115 16 82 42 131 126 160 274 16 81 19 88 48 99 45 19
136 108 157 154 20 44 25 119 9 160 -7 19 -6 34 5 55 22 43 19 83 -10 114 -37
40 -90 36 -183 -15 -79 -43 -92 -42 -92 9 0 31 -25 78 -45 86 -57 21 -99 -16
-165 -147 -29 -56 -62 -117 -73 -135 l-20 -34 -48 48 c-46 45 -48 50 -55 118
-6 65 -10 74 -45 108 l-38 36 46 69 c25 37 54 86 64 109 17 37 24 42 79 59 72
22 125 73 136 131 4 21 2 113 -4 205 -14 219 -30 255 -135 288 -33 11 -42 22
-77 93 -57 114 -93 163 -185 253 -131 129 -302 217 -475 244 -87 14 -240 12
-320 -4z m277 -35 c182 -25 369 -115 483 -235 l45 -47 -49 37 c-92 69 -226
125 -371 157 -34 7 -122 12 -205 12 -117 0 -162 -5 -233 -23 -167 -43 -271
-95 -402 -200 l-80 -64 42 49 c117 140 256 234 418 283 127 38 227 47 352 31z
m70 -125 c192 -31 381 -129 499 -259 92 -100 113 -146 29 -61 -115 116 -248
190 -421 236 -102 27 -301 36 -415 19 -269 -39 -518 -186 -639 -376 -16 -26
-30 -41 -30 -33 0 30 78 145 145 214 206 213 519 311 832 260z m101 -259 c185
-63 333 -179 399 -314 36 -72 38 -81 38 -171 0 -87 -3 -102 -31 -161 -34 -72
-130 -184 -120 -140 4 14 9 68 13 120 16 246 -93 465 -314 630 -77 58 -79 60
-67 60 6 0 43 -11 82 -24z m-780 -132 c33 -23 29 -71 -10 -130 -39 -58 -82
-70 -117 -35 -28 28 -26 55 4 107 41 70 80 89 123 58z m1426 -103 c32 -28 43
-63 50 -156 13 -178 10 -270 -10 -300 -19 -29 -97 -71 -102 -56 -2 5 4 37 13
72 25 97 30 257 11 367 -9 50 -16 94 -16 97 0 8 34 -7 54 -24z m-1817 -218 c0
-146 19 -251 63 -350 l20 -45 -32 6 c-43 9 -75 30 -92 64 -19 36 -39 353 -25
390 10 27 47 72 59 72 4 0 7 -62 7 -137z m307 -16 c18 -18 25 -40 31 -93 4
-38 15 -96 26 -128 16 -52 16 -63 4 -92 -15 -36 -48 -51 -90 -40 -54 14 -119
156 -120 263 0 52 4 65 24 87 33 35 92 36 125 3z m1340 -389 c-84 -164 -251
-317 -423 -387 -165 -69 -372 -85 -536 -42 -132 34 -270 110 -367 200 -81 77
-159 171 -140 171 5 0 16 -7 23 -16 52 -62 214 -159 333 -199 383 -128 840
-21 1072 251 26 30 48 54 50 54 3 0 -3 -15 -12 -32z m396 -299 c0 -57 1 -59
33 -73 19 -7 43 -26 55 -41 27 -35 29 -11 2 33 l-20 32 48 30 c70 44 131 66
151 53 25 -16 26 -62 0 -89 -16 -17 -19 -27 -12 -36 6 -7 16 -30 23 -52 22
-70 -18 -156 -103 -217 -49 -35 -99 -38 -160 -9 l-42 21 49 -46 49 -46 -9 -57
-9 -57 -71 1 c-44 0 -90 7 -119 19 -53 20 -128 83 -151 126 -13 26 -11 34 20
106 61 136 185 367 208 386 22 18 23 18 40 -3 13 -16 18 -40 18 -81z m-440 63
c13 -11 23 -33 27 -62 l6 -44 -28 18 c-16 10 -43 27 -62 38 -38 23 -39 25 -16
50 20 23 45 23 73 0z m-1270 -70 l23 -18 -49 -36 c-27 -20 -58 -46 -68 -57
-29 -32 -36 -26 -36 31 0 39 5 57 22 75 26 28 77 31 108 5z m1220 -41 c75 -48
200 -162 200 -182 0 -6 -22 -62 -50 -125 -27 -63 -50 -124 -50 -135 0 -31 32
-20 49 17 l13 30 57 -56 c65 -66 130 -95 240 -107 l72 -8 -27 -53 c-29 -59
-80 -99 -136 -108 -47 -8 -131 11 -198 44 -52 26 -55 29 -68 82 -23 99 -81
284 -107 345 -14 33 -23 49 -20 35 3 -14 19 -74 34 -135 15 -60 31 -131 35
-157 l7 -46 -38 -6 c-21 -3 -72 -8 -114 -11 l-76 -6 -7 61 c-16 137 -28 143
-292 148 -151 3 -235 0 -335 -13 -171 -21 -209 -41 -209 -107 0 -44 -9 -47
-107 -30 l-93 15 0 51 c1 28 7 87 15 131 8 43 12 81 10 83 -6 7 -54 -154 -61
-207 -5 -41 -10 -51 -23 -47 -9 3 -40 8 -69 11 -59 8 -62 13 -84 107 -11 45
-10 49 31 117 48 82 135 179 199 223 l45 31 67 -37 c138 -74 269 -106 435
-106 190 0 350 47 494 146 42 29 78 53 81 53 3 1 39 -21 80 -48z m-2091 -141
c185 -39 381 -80 436 -92 112 -23 130 -30 145 -58 21 -39 143 -618 138 -654
-2 -10 -33 111 -70 270 -75 320 -89 353 -161 384 -36 15 -414 102 -752 172
-55 11 -102 22 -104 24 -6 5 10 24 21 24 6 0 162 -32 347 -70z m479 -201 c32
-18 46 -48 67 -144 9 -44 39 -172 66 -284 27 -113 47 -207 45 -209 -3 -2 -35
1 -73 7 -61 9 -74 16 -117 55 -103 97 -249 114 -328 39 l-27 -26 -105 13 c-64
8 -117 20 -135 31 -75 46 -170 230 -220 426 -21 83 -46 267 -37 281 6 10 829
-171 864 -189z m1092 -176 l0 -106 -52 -47 -53 -48 3 -127 4 -128 -148 5
c-176 6 -174 5 -193 131 l-13 86 28 35 28 35 18 -30 c23 -38 80 -63 124 -54
48 9 94 65 94 116 0 78 -49 129 -126 129 -28 0 -44 -8 -70 -34 -35 -35 -35
-35 -54 -15 -11 10 -27 19 -35 19 -21 0 -19 52 3 79 23 28 182 52 390 59 l52
2 0 -107z m217 91 c23 -3 46 -10 51 -17 19 -23 35 -163 36 -310 1 -130 -1
-150 -16 -161 -17 -12 -155 -37 -279 -51 l-56 -6 -6 77 c-13 144 -12 147 38
192 24 23 49 50 55 61 5 11 10 67 10 126 l0 106 63 -6 c34 -3 81 -8 104 -11z
m-919 -130 c87 -14 166 -29 176 -33 17 -6 -1 -28 -127 -157 -149 -152 -187
-177 -97 -64 28 34 50 66 50 71 0 10 -21 16 -87 24 -55 7 -73 25 -25 25 20 1
35 12 61 45 18 25 31 51 28 59 -3 8 -34 19 -76 26 -39 6 -71 16 -71 21 0 12
-12 13 168 -17z m473 -35 c29 -29 23 -85 -13 -112 -23 -17 -31 -18 -57 -8 -35
15 -55 60 -41 96 18 46 76 59 111 24z m-553 -14 c2 -2 -1 -13 -8 -24 -12 -24
-60 -29 -60 -7 0 8 -3 22 -6 31 -6 14 -1 15 32 9 22 -3 40 -8 42 -9z m340 -30
c-4 -28 -370 -424 -376 -405 -2 6 3 19 12 29 9 10 16 25 16 35 0 17 327 366
343 366 5 0 7 -11 5 -25z m1026 -6 c3 -17 6 -53 6 -80 l0 -49 -114 0 -114 0
-7 66 c-4 36 -4 69 1 74 5 5 41 11 79 13 39 1 86 4 106 5 33 2 37 -1 43 -29z
m104 -141 c10 -53 -1 -106 -26 -122 -11 -7 -22 63 -22 141 0 49 2 53 19 44 11
-7 22 -29 29 -63z m-1461 22 c11 0 9 -7 -9 -29 -30 -39 -38 -38 -38 5 0 29 3
35 16 30 9 -3 22 -6 31 -6z m285 -102 c-4 -10 -72 -10 -72 -1 0 4 15 22 33 41
l32 33 6 -33 c3 -18 3 -36 1 -40z m1084 -293 c0 -286 3 -346 21 -450 11 -66
18 -125 14 -132 -3 -6 -21 -28 -40 -48 -68 -75 -206 -112 -361 -97 l-74 7 -46
90 c-47 93 -122 307 -135 383 -7 41 -6 42 23 42 58 0 293 73 279 87 -2 2 -37
-4 -77 -12 -113 -24 -261 -33 -368 -23 -93 8 -236 33 -254 44 -4 3 -8 2 -8 -1
0 -23 231 -95 305 -95 36 0 44 -4 49 -22 3 -13 6 -114 6 -225 l0 -201 -32 -20
c-90 -55 -246 -67 -399 -31 -100 23 -88 6 -114 169 -17 115 -39 297 -61 523
l-16 169 43 44 c42 43 45 44 105 44 62 0 62 0 81 -37 31 -64 49 -68 303 -67
239 1 421 23 475 58 24 16 45 69 45 114 0 22 1 23 118 20 l117 -3 1 -330z
m-1798 246 c55 -28 104 -86 100 -119 -5 -45 -58 -67 -160 -67 -96 0 -130 15
-157 70 -12 25 -12 35 0 69 26 76 121 96 217 47z m-297 -47 c21 -4 26 -10 22
-25 -4 -16 -11 -19 -29 -15 -44 11 -70 24 -84 41 -15 18 -10 17 91 -1z m2169
-78 c0 -41 -4 -78 -10 -81 -6 -4 -10 23 -10 74 0 47 4 81 10 81 6 0 10 -31 10
-74z m-1592 -2 c34 -4 52 -11 52 -20 0 -16 -54 -19 -134 -8 -37 6 -46 11 -46
27 0 17 5 19 38 14 20 -3 61 -9 90 -13z m195 -76 c23 -236 24 -230 -30 -184
-26 22 -28 31 -31 108 -3 73 -1 86 18 111 12 15 25 27 29 27 5 0 11 -28 14
-62z m1418 -904 c25 -129 38 -222 34 -242 -4 -23 -17 -40 -44 -57 l-38 -25
-243 2 -244 3 -9 34 c-27 108 61 198 214 221 53 7 52 8 -28 9 -45 0 -93 -3
-107 -9 -24 -9 -25 -7 -31 38 -4 26 -10 61 -15 78 l-8 32 137 4 c158 5 222 24
293 87 24 22 44 38 46 37 1 -2 20 -97 43 -212z m-752 -151 c1 -189 31 -173
-332 -173 -215 0 -296 3 -305 12 -7 7 -12 35 -12 64 0 87 61 148 161 161 41 6
41 6 20 22 -15 12 -25 39 -36 100 -9 46 -15 84 -13 86 2 1 44 -6 93 -17 122
-26 265 -20 350 13 l60 24 7 -80 c3 -44 6 -140 7 -212z"/>
<path d="M1140 2469 c-59 -24 -100 -85 -100 -150 0 -32 -7 -49 -31 -76 -18
-21 -29 -44 -27 -56 3 -20 10 -22 64 -23 33 -1 70 -7 82 -13 29 -16 98 -14
132 4 34 18 66 60 76 101 4 16 24 48 45 71 22 24 39 49 39 57 0 23 -37 38 -72
31 -24 -6 -35 -2 -56 18 -46 44 -100 57 -152 36z m129 -35 c43 -36 56 -61 40
-80 -16 -20 -206 -114 -229 -114 -14 0 -21 10 -26 35 -11 58 4 105 46 147 34
34 43 38 88 38 40 0 57 -6 81 -26z m134 -40 c3 -4 0 -19 -8 -34 -37 -72 -280
-197 -366 -188 -42 4 -46 19 -15 54 23 26 24 27 19 7 -4 -18 -1 -23 13 -23 31
0 175 63 237 103 61 40 79 63 56 78 -10 6 -3 9 22 9 20 0 38 -3 42 -6z m-100
-176 c-26 -46 -82 -72 -134 -63 l-41 7 94 47 c51 26 95 46 97 45 2 -2 -5 -18
-16 -36z"/>
</g>
</svg>
