<?xml version="1.0" standalone="no"?>
<!DOCTYPE svg PUBLIC "-//W3C//DTD SVG 20010904//EN"
 "http://www.w3.org/TR/2001/REC-SVG-20010904/DTD/svg10.dtd">
<svg version="1.0" xmlns="http://www.w3.org/2000/svg"
 width="500.000000pt" height="500.000000pt" viewBox="0 0 500.000000 500.000000"
 preserveAspectRatio="xMidYMid meet">

<g transform="translate(0.000000,500.000000) scale(0.100000,-0.100000)"
fill="#000000" stroke="none">
<path d="M1795 3955 c-16 -15 -25 -37 -26 -57 -2 -65 -1 -63 -52 -60 -46 4
-48 3 -62 -31 -12 -28 -13 -47 -5 -88 22 -114 10 -234 -46 -462 -52 -213 -76
-362 -77 -472 -1 -89 2 -107 27 -161 32 -71 105 -147 185 -192 l53 -30 -39
-43 c-98 -108 -176 -255 -212 -401 -30 -121 -30 -291 0 -378 11 -34 19 -64 16
-67 -3 -3 -50 27 -104 65 -178 127 -249 151 -292 96 -12 -15 -21 -38 -21 -53
1 -66 74 -166 180 -245 51 -38 53 -41 30 -44 -79 -10 -130 -55 -115 -102 9
-28 59 -60 118 -76 83 -22 339 -38 440 -27 77 8 94 7 128 -9 110 -49 264 -83
467 -103 127 -13 159 -13 272 0 204 24 337 55 464 110 l38 16 27 -32 c22 -26
36 -32 77 -36 46 -5 54 -2 87 26 23 21 44 53 57 89 13 34 39 75 64 102 63 66
76 90 76 137 0 33 -6 48 -26 67 l-26 24 17 93 c21 113 24 313 6 419 -23 132
-74 254 -144 343 -16 21 -28 39 -26 41 2 1 30 17 61 35 77 43 134 109 154 180
16 56 27 80 72 159 21 37 26 63 33 167 8 122 14 147 50 194 37 47 13 111 -42
111 -40 1 -181 28 -189 37 -15 17 -41 118 -51 199 -8 62 -7 102 1 152 23 127
24 151 4 173 -14 15 -28 19 -59 17 l-40 -3 -5 45 c-8 59 -25 88 -57 96 -36 10
-57 -6 -154 -116 -95 -109 -76 -103 -252 -71 -164 29 -315 28 -521 -5 -88 -14
-170 -27 -182 -30 -26 -7 -140 69 -242 161 -40 36 -82 65 -93 65 -11 0 -31
-11 -44 -25z m113 -76 c37 -34 104 -86 150 -116 l84 -56 161 28 c364 62 645
35 853 -80 67 -38 152 -109 186 -158 19 -27 13 -24 -32 16 -68 62 -118 90
-218 127 -102 37 -226 59 -377 67 -124 6 -198 -1 -427 -39 l-126 -21 -72 48
c-39 26 -105 79 -146 116 -94 88 -109 89 -125 9 -5 -29 -7 -23 -8 31 -1 56 9
89 27 89 2 0 34 -27 70 -61z m1382 42 c14 -27 13 -31 -9 -31 -11 0 -50 -33
-93 -80 -53 -57 -77 -77 -87 -71 -11 7 4 29 65 97 101 116 106 118 124 85z
m-1524 -157 c21 -19 31 -33 21 -30 -58 19 -70 19 -84 1 -12 -17 -13 -14 -13
23 0 54 22 56 76 6z m1652 4 c3 -25 1 -27 -30 -26 -18 0 -44 -2 -58 -6 -22 -6
-21 -3 13 29 44 42 71 42 75 3z m-960 -293 c68 -16 156 -57 239 -113 43 -28
67 -37 113 -40 74 -5 119 10 185 63 88 72 109 80 210 80 81 0 95 -3 142 -29
39 -21 58 -40 73 -71 11 -23 20 -46 20 -51 0 -5 -50 -9 -113 -9 -147 -1 -224
-24 -338 -102 -148 -101 -180 -101 -317 -8 -44 30 -102 63 -129 74 -121 48
-312 52 -527 11 -61 -11 -113 -20 -118 -20 -19 0 10 35 65 80 155 126 331 174
495 135z m-33 -231 c206 -39 286 -137 255 -312 -24 -139 -105 -247 -228 -305
-62 -29 -75 -32 -167 -32 -80 1 -111 5 -158 24 -73 29 -164 112 -200 183 -28
56 -57 169 -57 227 -1 188 228 276 555 215z m1035 -3 c18 -36 71 -265 77 -338
5 -63 2 -82 -22 -148 l-27 -75 -51 -15 c-123 -36 -227 -7 -322 90 -88 89 -148
240 -131 328 20 107 162 174 373 176 81 1 94 -1 103 -18z m164 -41 c7 -7 11
-71 11 -178 0 -131 -4 -175 -16 -202 l-16 -35 -7 50 c-16 116 -39 236 -62 317
-13 48 -24 89 -24 92 0 8 101 -31 114 -44z m-1784 -309 c55 -169 121 -255 240
-310 201 -94 417 -49 543 114 l41 53 28 -23 c16 -14 45 -29 66 -35 82 -22 219
-4 263 36 17 16 21 14 69 -29 28 -25 76 -55 106 -66 60 -23 165 -28 223 -11
19 5 36 8 37 7 2 -2 -16 -26 -39 -54 -52 -64 -141 -136 -193 -158 -80 -33
-248 -61 -426 -71 l-128 -7 0 34 c0 38 6 49 35 65 24 13 31 47 12 62 -9 8
-110 12 -330 13 l-317 1 -61 41 c-124 83 -212 219 -228 351 -4 38 -6 80 -3 94
5 23 6 24 18 7 7 -10 27 -61 44 -114z m1056 74 c18 -15 17 -16 -12 -10 -19 4
-47 0 -68 -9 -45 -19 -46 -12 -3 14 39 24 57 25 83 5z m30 -76 c39 -23 74 -69
74 -95 0 -9 -3 -15 -6 -12 -3 4 -21 0 -39 -8 -47 -19 -168 -18 -211 2 -40 19
-42 29 -11 45 12 6 38 29 58 50 43 46 82 51 135 18z m-286 -524 l0 -65 -347 0
c-308 0 -348 2 -365 17 -22 20 -23 70 -1 95 15 17 40 18 365 18 l348 0 0 -65z
m709 -27 c21 -29 48 -73 60 -98 12 -25 16 -36 9 -25 -7 11 -44 51 -82 89 -52
52 -65 70 -55 77 22 14 27 11 68 -43z m-69 -85 c69 -144 120 -334 140 -525 5
-51 10 -96 10 -100 0 -5 -18 -8 -40 -8 -31 0 -47 -7 -67 -26 -23 -23 -26 -24
-43 -9 -28 25 -88 16 -113 -17 -23 -31 -25 -67 -12 -255 l8 -121 -39 -20 c-95
-48 -280 -95 -422 -108 l-72 -7 5 29 c2 16 7 50 10 75 3 26 23 83 44 126 61
126 63 180 7 225 l-21 18 28 0 c26 0 27 2 27 54 0 52 1 55 33 66 17 6 40 17
50 24 17 13 16 16 -2 59 -11 24 -32 64 -47 88 -24 37 -28 57 -32 131 -2 48 -1
116 2 151 l7 63 36 -4 c64 -8 144 17 241 74 104 62 153 82 198 83 29 1 34 -4
64 -66z m-1506 -8 c9 -44 97 -142 151 -166 56 -26 109 -23 232 11 141 40 191
39 257 -1 72 -45 189 -143 233 -197 60 -72 124 -185 110 -194 -14 -9 -27 10
-20 29 3 8 0 13 -8 11 -8 -2 -14 7 -15 20 -1 12 -5 26 -9 30 -5 4 -5 -2 -1
-13 4 -10 -12 3 -36 30 -103 117 -126 140 -201 196 -116 88 -150 103 -215 96
-29 -3 -103 -20 -164 -38 -102 -30 -115 -31 -157 -20 -88 23 -169 113 -179
197 -6 53 13 61 22 9z m-481 -614 c30 -16 95 -58 144 -92 49 -35 100 -71 113
-80 14 -9 22 -20 19 -23 -3 -3 -55 28 -115 70 -137 97 -188 124 -230 124 -32
0 -42 9 -27 23 13 13 42 7 96 -22z m2138 -78 c8 -22 5 -43 -14 -105 -14 -43
-22 -78 -18 -78 6 0 32 37 61 89 9 17 38 8 46 -14 10 -26 -16 -72 -68 -122
-27 -27 -58 -64 -68 -84 -13 -24 -28 -38 -45 -41 -64 -13 -118 23 -109 72 4
16 -1 70 -11 121 -22 123 -12 169 36 169 14 0 35 -56 43 -112 4 -27 11 -48 16
-48 5 0 12 21 16 48 13 89 39 132 81 132 16 0 27 -8 34 -27z m-916 -26 c8 -13
23 -57 34 -97 10 -41 23 -76 29 -78 10 -3 24 58 19 92 -3 28 38 48 69 34 38
-18 32 -69 -21 -176 -25 -50 -45 -97 -45 -104 0 -8 -7 -24 -16 -36 -12 -17
-25 -22 -59 -22 -45 0 -95 17 -95 31 0 5 -29 40 -65 78 -36 38 -70 84 -75 102
-13 44 6 83 43 87 23 3 30 -2 41 -30 16 -38 54 -88 66 -88 5 0 3 21 -5 48 -20
65 -19 141 2 164 23 25 59 23 78 -5z m85 -7 c-19 -13 -30 -13 -30 0 0 6 10 10
23 10 18 0 19 -2 7 -10z m-232 -16 c-2 -11 -15 -17 -40 -19 -31 -2 -38 1 -38
17 0 14 8 18 41 18 32 0 40 -3 37 -16z m-362 -45 c10 -18 123 -67 181 -80 33
-8 53 -17 53 -26 0 -26 31 -74 85 -133 30 -32 66 -82 80 -111 l27 -52 -84 6
c-47 4 -100 12 -119 18 -79 27 -214 145 -273 237 -24 38 -25 46 -16 89 18 82
19 84 40 73 10 -6 22 -15 26 -21z m-586 -179 c20 -7 16 -8 -22 -9 -26 -1 -50
4 -53 9 -7 12 38 12 75 0z"/>
<path d="M2346 3089 c-46 -36 -70 -95 -70 -174 0 -116 55 -195 137 -195 32 0
46 7 77 38 81 81 81 233 0 314 -31 31 -45 38 -77 38 -26 0 -50 -8 -67 -21z
m124 -179 c14 -33 6 -83 -17 -101 -13 -11 -18 -10 -34 10 -23 28 -25 79 -4
108 19 27 39 21 55 -17z"/>
<path d="M3150 3071 c-57 -60 -73 -143 -45 -237 36 -121 149 -154 218 -63 93
122 31 339 -96 339 -34 0 -46 -6 -77 -39z m90 -197 c0 -40 -18 -74 -40 -74
-30 0 -41 108 -14 135 26 26 54 -6 54 -61z"/>
</g>
</svg>
