<svg id="visual" viewBox="0 0 960 540" width="960" height="540" xmlns="http://www.w3.org/2000/svg" xmlns:xlink="http://www.w3.org/1999/xlink" version="1.1"><rect x="0" y="0" width="960" height="540" fill="#010101"></rect><defs><linearGradient id="grad1_0" x1="43.8%" y1="0%" x2="100%" y2="100%"><stop offset="14.444444444444446%" stop-color="#5047eb" stop-opacity="1"></stop><stop offset="85.55555555555554%" stop-color="#5047eb" stop-opacity="1"></stop></linearGradient></defs><defs><linearGradient id="grad1_1" x1="43.8%" y1="0%" x2="100%" y2="100%"><stop offset="14.444444444444446%" stop-color="#5047eb" stop-opacity="1"></stop><stop offset="85.55555555555554%" stop-color="#30276f" stop-opacity="1"></stop></linearGradient></defs><defs><linearGradient id="grad1_2" x1="43.8%" y1="0%" x2="100%" y2="100%"><stop offset="14.444444444444446%" stop-color="#010101" stop-opacity="1"></stop><stop offset="85.55555555555554%" stop-color="#30276f" stop-opacity="1"></stop></linearGradient></defs><defs><linearGradient id="grad2_0" x1="0%" y1="0%" x2="56.3%" y2="100%"><stop offset="14.444444444444446%" stop-color="#5047eb" stop-opacity="1"></stop><stop offset="85.55555555555554%" stop-color="#5047eb" stop-opacity="1"></stop></linearGradient></defs><defs><linearGradient id="grad2_1" x1="0%" y1="0%" x2="56.3%" y2="100%"><stop offset="14.444444444444446%" stop-color="#30276f" stop-opacity="1"></stop><stop offset="85.55555555555554%" stop-color="#5047eb" stop-opacity="1"></stop></linearGradient></defs><defs><linearGradient id="grad2_2" x1="0%" y1="0%" x2="56.3%" y2="100%"><stop offset="14.444444444444446%" stop-color="#30276f" stop-opacity="1"></stop><stop offset="85.55555555555554%" stop-color="#010101" stop-opacity="1"></stop></linearGradient></defs><g transform="translate(960, 0)"><path d="M0 270C-24.9 253.2 -49.7 236.5 -73.5 226.4C-97.4 216.2 -120.2 212.8 -148.7 204.7C-177.2 196.6 -211.4 183.7 -218.4 158.7C-225.4 133.7 -205.2 96.5 -209.2 68C-213.3 39.5 -241.6 19.8 -270 0L0 0Z" fill="#1e1838"></path><path d="M0 180C-16.6 168.8 -33.1 157.6 -49 150.9C-64.9 144.2 -80.1 141.9 -99.1 136.5C-118.2 131 -141 122.5 -145.6 105.8C-150.3 89.1 -136.8 64.3 -139.5 45.3C-142.2 26.3 -161.1 13.2 -180 0L0 0Z" fill="#4137ab"></path><path d="M0 90C-8.3 84.4 -16.6 78.8 -24.5 75.5C-32.5 72.1 -40.1 70.9 -49.6 68.2C-59.1 65.5 -70.5 61.2 -72.8 52.9C-75.1 44.6 -68.4 32.2 -69.7 22.7C-71.1 13.2 -80.5 6.6 -90 0L0 0Z" fill="#5047eb"></path></g><g transform="translate(0, 540)"><path d="M0 -270C31.5 -272.4 63.1 -274.7 83.4 -256.8C103.8 -238.9 113 -200.6 128.7 -177.2C144.5 -153.7 166.9 -145 176.4 -128.1C185.9 -111.3 182.5 -86.4 195.9 -63.7C209.4 -41 239.7 -20.5 270 0L0 0Z" fill="#1e1838"></path><path d="M0 -180C21 -181.6 42.1 -183.1 55.6 -171.2C69.2 -159.2 75.3 -133.8 85.8 -118.1C96.3 -102.5 111.2 -96.6 117.6 -85.4C123.9 -74.2 121.6 -57.6 130.6 -42.4C139.6 -27.3 159.8 -13.7 180 0L0 0Z" fill="#4137ab"></path><path d="M0 -90C10.5 -90.8 21 -91.6 27.8 -85.6C34.6 -79.6 37.7 -66.9 42.9 -59.1C48.2 -51.2 55.6 -48.3 58.8 -42.7C62 -37.1 60.8 -28.8 65.3 -21.2C69.8 -13.7 79.9 -6.8 90 0L0 0Z" fill="#5047eb"></path></g></svg>